<svg xmlns="http://www.w3.org/2000/svg" width="142.821" height="142.821" viewBox="0 0 142.821 142.821">
  <g id="Grupo_1098276" data-name="Grupo 1098276" transform="translate(-722.652 -14938.317)">
    <circle id="Elipse_1792" data-name="Elipse 1792" cx="71.41" cy="71.41" r="71.41" transform="translate(722.652 14938.317)" fill="#ffd54f"/>
    <path id="Trazado_872995" data-name="Trazado 872995" d="M75.781,12.627,96.1,2.05a10.591,10.591,0,0,1,1.78-.725,14.216,14.216,0,0,1,9.761.815,15.6,15.6,0,0,1,7.592,6.913,13.788,13.788,0,0,1,.906,2.214,16.416,16.416,0,0,1-.544,11.4,15.389,15.389,0,0,1-5.12,6.376,15.326,15.326,0,0,1,5.12,6.369,16.416,16.416,0,0,1,.544,11.4,13.854,13.854,0,0,1-.906,2.22,15.663,15.663,0,0,1-7.592,6.913,14.25,14.25,0,0,1-9.761.809,10.593,10.593,0,0,1-1.78-.725L75.781,45.449c-.479,0-.965,0-1.45-.006a262.529,262.529,0,0,1-47.787-4.492C10.266,37.74,0,33.028,0,29.041c0-2.544,3.418-5.127,9.47-7.372a128.306,128.306,0,0,1,21.936-5.43,1.707,1.707,0,1,1,.576,3.366A125.337,125.337,0,0,0,10.66,24.879c-4.621,1.715-7.236,3.191-7.236,4.162,0,2.311,9.2,5.676,23.781,8.55A240.54,240.54,0,0,0,57.321,41.4l20.589-13.14L74.869,16.057c-5.981.026-11.761.24-17.262.6-6.395.421-12.441,1.036-18.02,1.793a1.708,1.708,0,0,1-.453-3.385c5.676-.77,11.806-1.4,18.259-1.819,5.91-.388,12.071-.608,18.389-.615Zm16.11,68.461,1.592-8.44a1.709,1.709,0,0,1,3.359.628l-1.515,8.02A33.4,33.4,0,0,1,101,82.408l2.738-14.544a1.709,1.709,0,0,1,3.359.628l-2.835,15.062a23.8,23.8,0,0,1,10.278,7.755,12.715,12.715,0,0,1,2.194,4.783,7,7,0,0,1-.537,4.673c-1.01,1.935-3.029,3.307-6.136,3.67v11.2a1.707,1.707,0,0,1-1.709,1.709H74.338a1.713,1.713,0,0,1-1.715-1.709v-11.2c-3.107-.363-5.127-1.735-6.13-3.67a7.018,7.018,0,0,1-.543-4.673,12.714,12.714,0,0,1,2.194-4.783,20.054,20.054,0,0,1,3.644-3.826L68.6,80.019a5.609,5.609,0,1,1,3.146-1.34l2.9,6.79a28.894,28.894,0,0,1,6.033-2.751L78.1,69.022a5.64,5.64,0,0,1-3.98-8.783,5.643,5.643,0,1,1,7.334,8.155l2.537,13.438a36.038,36.038,0,0,1,7.9-.744ZM91.348,84.5A29.343,29.343,0,0,0,77.7,87.657a19.144,19.144,0,0,0-6.77,5.631,9.366,9.366,0,0,0-1.618,3.469,3.678,3.678,0,0,0,.22,2.427c.6,1.158,2.155,1.916,4.809,1.916H87.464a1.712,1.712,0,1,1,0,3.424H76.047v9.4h30.6v-9.4H95.225a1.712,1.712,0,1,1,0-3.424h13.133c2.647,0,4.207-.757,4.8-1.916a3.657,3.657,0,0,0,.22-2.427,9.2,9.2,0,0,0-1.618-3.469C107.329,87.074,98.655,84.5,91.348,84.5ZM80.034,61.585a2.225,2.225,0,0,0-3.094.583,2.225,2.225,0,0,0,.583,3.094,2.227,2.227,0,0,0,3.443-2.253A2.2,2.2,0,0,0,80.034,61.585ZM68.881,72.336A2.23,2.23,0,1,0,70.1,73.527,2.22,2.22,0,0,0,68.881,72.336ZM7.308,77.294l15.411-8.9V65.618H7.308Zm15.411,3.994-15.411,8.9V94.3a1.715,1.715,0,0,1-3.431,0V64.291L.188,56.912a1.709,1.709,0,0,1,.764-2.291,1.727,1.727,0,0,1,.764-.188H55.859a1.718,1.718,0,0,1,1.715,1.715,1.74,1.74,0,0,1-.259.906L53.69,64.291v43.2l3.625,7.243a1.71,1.71,0,0,1-1.456,2.615H1.715a1.7,1.7,0,0,1-.764-.188,1.7,1.7,0,0,1-.764-2.285l3.689-7.385v-5.43a1.715,1.715,0,1,1,3.431,0v4.1H22.719V81.288Zm0-8.958L7.308,81.23v5.023l15.411-8.906ZM50.266,89.851,26.143,103.78v2.382H50.266ZM26.143,99.845,50.266,85.916V80.9L42.415,85.43a1.7,1.7,0,1,1-1.7-2.958l9.547-5.514V71.941L26.143,85.87v5.01l7.845-4.531A1.71,1.71,0,0,1,35.7,89.307l-9.56,5.521Zm0-17.923L50.266,68V65.618H26.143Zm37.01-40.195q5.718.262,11.715.3l2.3-9.243ZM19.5,57.857H4.479l2.162,4.337H21.67Zm33.593,0H23.315l2.168,4.337H50.927ZM21.67,109.593H6.641l-2.162,4.33H19.5Zm1.644,4.33h29.78l-2.168-4.33H25.483ZM59.535,23.216a5.812,5.812,0,1,1-4.123,1.7,5.8,5.8,0,0,1,4.123-1.7Zm1.7,4.123a2.414,2.414,0,1,0,.7,1.7A2.392,2.392,0,0,0,61.231,27.339Zm45.431,3.411H81.2L78.183,42.841l19.5,10.149a7.337,7.337,0,0,0,1.2.5,10.818,10.818,0,0,0,7.392-.68,12.131,12.131,0,0,0,5.916-5.359,9.711,9.711,0,0,0,.68-1.644,12.973,12.973,0,0,0-.408-9.043,11.729,11.729,0,0,0-5.8-6.012ZM82.526,39.636l1.036-4.155a1.716,1.716,0,0,1,1.657-1.3h20.13a1.7,1.7,0,0,1,1.049.362,8.283,8.283,0,0,1,3.217,4.434,9.889,9.889,0,0,1-.026,5.812,7.1,7.1,0,0,1-1.735,2.841,9.509,9.509,0,0,1-5.832,2.777,5.059,5.059,0,0,1-2.757-.46l-15.9-8.272a1.717,1.717,0,0,1-.841-2.039ZM86.552,37.6l-.408,1.651,14.7,7.657a1.856,1.856,0,0,0,.9.084,5.927,5.927,0,0,0,1.825-.485,5.99,5.99,0,0,0,1.832-1.262,3.741,3.741,0,0,0,.926-1.463,6.52,6.52,0,0,0,.026-3.806,4.986,4.986,0,0,0-1.56-2.375H86.552ZM97.678,5.086l-19.5,10.149L81.2,27.326h25.463a11.741,11.741,0,0,0,5.8-6.007,12.99,12.99,0,0,0,.408-9.049,9.4,9.4,0,0,0-.68-1.638,12.115,12.115,0,0,0-5.916-5.366,10.859,10.859,0,0,0-7.392-.68,7.948,7.948,0,0,0-1.2.5ZM86.144,18.821l.408,1.65h18.24a4.986,4.986,0,0,0,1.56-2.375,6.5,6.5,0,0,0-.026-3.8,3.759,3.759,0,0,0-.926-1.469,5.974,5.974,0,0,0-1.832-1.262,5.75,5.75,0,0,0-1.825-.479,1.865,1.865,0,0,0-.9.078Zm-2.583,3.774-1.036-4.155a1.708,1.708,0,0,1,.841-2.032l15.9-8.279a5.063,5.063,0,0,1,2.757-.459,9.507,9.507,0,0,1,5.832,2.777,7.129,7.129,0,0,1,1.735,2.848,9.867,9.867,0,0,1,.026,5.806,8.3,8.3,0,0,1-3.217,4.44,1.7,1.7,0,0,1-1.049.356H85.218A1.707,1.707,0,0,1,83.561,22.594Z" transform="translate(740.893 14950.653)" fill="#673ab7"/>
  </g>
</svg>
