<svg xmlns="http://www.w3.org/2000/svg" width="142.821" height="142.821" viewBox="0 0 142.821 142.821">
  <g id="Grupo_1098278" data-name="Grupo 1098278" transform="translate(-715.384 -15312.682)">
    <g id="Grupo_1098238" data-name="Grupo 1098238" transform="translate(435.384 12745.565)">
      <circle id="Elipse_1792" data-name="Elipse 1792" cx="71.41" cy="71.41" r="71.41" transform="translate(280 2567.116)" fill="#ffd54f"/>
    </g>
    <g id="pattern" transform="translate(715.384 15312.682)">
      <path id="Trazado_873004" data-name="Trazado 873004" d="M69.745,243.577c0,2.184.047,4.514.066,7.033H3.734v-71.8h7.377a1.867,1.867,0,1,0,0-3.734H3.241A3.246,3.246,0,0,0,0,178.317V251.1a3.245,3.245,0,0,0,3.241,3.241H70.3a3.254,3.254,0,0,0,3.244-3.262c-.016-2.756-.071-5.384-.069-7.6A1.868,1.868,0,1,0,69.745,243.577Z" transform="translate(0 -136.096)" fill="#673ab7"/>
      <path id="Trazado_873005" data-name="Trazado 873005" d="M171.8,77.071a17.656,17.656,0,0,1-13.5-16.515,3.231,3.231,0,0,0-3.239-3.072h-39.9l3.964-5.2a16.776,16.776,0,1,0-12.545-9.561l-2.641,3.466L101.609,43A16.769,16.769,0,0,0,76.217,22.477L73.991,20.25a5.946,5.946,0,0,0-8.409,8.409l4.374,4.374A16.764,16.764,0,0,0,89.2,52.28l3.967,5.2H66.53a1.867,1.867,0,1,0,0,3.734H92.492c-3.357,4.406-11.553,14.754-13.6,19.8-5.533,13.634-5.5,13.176-5.5,14.656A5.639,5.639,0,0,0,83.531,99l28.789-37.78H154.6a21.471,21.471,0,0,0,4.341,11.655,22.062,22.062,0,0,0,11.872,7.8,1.173,1.173,0,0,1,.866,1.126c0,.674-.513,3.336-3.612,20.234-16.645-17.65-46.927-8.182-49.99,16.178a1.867,1.867,0,1,0,3.705.466c2.692-21.414,29.507-29.521,43.857-13.77a3.5,3.5,0,0,0,6.016-1.736c3.423-18.662,3.758-20.271,3.758-21.371a4.916,4.916,0,0,0-3.615-4.728ZM111.463,27.819a13.029,13.029,0,0,1,18.278-2.463h0c9.939,7.577,4.48,23.412-7.917,23.412a13.051,13.051,0,0,1-10.361-20.949Zm-43.241-1.8a2.212,2.212,0,1,1,3.128-3.128l2.19,2.19a16.664,16.664,0,0,0-2.381,3.874Zm7.906,17.612A13.055,13.055,0,0,1,86.486,22.69c12.491,0,17.792,15.886,7.92,23.409A13.057,13.057,0,0,1,76.128,43.631Zm16.926,7.54a16.75,16.75,0,0,0,6.4-4.79l2.129,2.9L96.6,55.825ZM80.561,96.736a1.889,1.889,0,0,1-3.292-1.791c7.607-18.743,2.817-11.282,31.409-48.806a16.824,16.824,0,0,0,6.6,5.034Z" transform="translate(-47.95 -18.507)" fill="#673ab7"/>
      <path id="Trazado_873006" data-name="Trazado 873006" d="M267.561,204.078h-4.979a1.867,1.867,0,0,0,0,3.734h4.979a1.867,1.867,0,0,0,0-3.734Z" transform="translate(-195.809 -157.88)" fill="#673ab7"/>
      <path id="Trazado_873007" data-name="Trazado 873007" d="M416.006,228.849a1.867,1.867,0,0,0,.545-2.584,24.605,24.605,0,0,1-2.145-4.092,1.869,1.869,0,0,0-3.593.8c.049.991,1.845,4.159,2.609,5.331A1.867,1.867,0,0,0,416.006,228.849Z" transform="translate(-308.538 -170.602)" fill="#673ab7"/>
      <path id="Trazado_873008" data-name="Trazado 873008" d="M337.582,207.811h4.979a1.867,1.867,0,1,0,0-3.734h-4.979a1.867,1.867,0,1,0,0,3.734Z" transform="translate(-252.138 -157.879)" fill="#673ab7"/>
      <path id="Trazado_873009" data-name="Trazado 873009" d="M470.8,288.291l.807-4.913a1.867,1.867,0,1,0-3.685-.6l-.807,4.913a1.867,1.867,0,1,0,3.685.6Z" transform="translate(-350.809 -215.808)" fill="#673ab7"/>
      <path id="Trazado_873010" data-name="Trazado 873010" d="M32.734,250.772a1.867,1.867,0,1,0-3.734,0v4.979a1.867,1.867,0,1,0,3.734,0Z" transform="translate(-21.78 -191.547)" fill="#673ab7"/>
      <path id="Trazado_873011" data-name="Trazado 873011" d="M117.561,207.811a1.867,1.867,0,1,0,0-3.734h-4.979a1.867,1.867,0,1,0,0,3.734Z" transform="translate(-83.152 -157.879)" fill="#673ab7"/>
      <path id="Trazado_873012" data-name="Trazado 873012" d="M42.562,204.078H37.583a1.867,1.867,0,1,0,0,3.734h4.979a1.867,1.867,0,1,0,0-3.734Z" transform="translate(-26.824 -157.88)" fill="#673ab7"/>
      <path id="Trazado_873013" data-name="Trazado 873013" d="M407.761,291.248a1.867,1.867,0,0,0,1.615,2.089,32.782,32.782,0,0,1,4.613.931,1.867,1.867,0,1,0,1-3.6,36.482,36.482,0,0,0-5.14-1.037,1.867,1.867,0,0,0-2.089,1.615Z" transform="translate(-306.236 -222.124)" fill="#673ab7"/>
      <path id="Trazado_873014" data-name="Trazado 873014" d="M213.136,453.226a1.867,1.867,0,0,0,0-3.734h-4.979a1.867,1.867,0,0,0,0,3.734Z" transform="translate(-154.934 -342.197)" fill="#673ab7"/>
      <path id="Trazado_873015" data-name="Trazado 873015" d="M56.291,451.359a1.867,1.867,0,0,0,1.867,1.867h4.979a1.867,1.867,0,0,0,0-3.734H58.158A1.867,1.867,0,0,0,56.291,451.359Z" transform="translate(-42.277 -342.197)" fill="#673ab7"/>
      <path id="Trazado_873016" data-name="Trazado 873016" d="M252.781,398.223a42.372,42.372,0,0,0-.731,5.151c0,.053-.006.105-.006.158a1.867,1.867,0,0,0,3.728.153,38.56,38.56,0,0,1,.666-4.7,1.867,1.867,0,1,0-3.656-.762Z" transform="translate(-189.296 -302.575)" fill="#673ab7"/>
      <path id="Trazado_873017" data-name="Trazado 873017" d="M138.136,453.226a1.867,1.867,0,0,0,0-3.734h-4.979a1.867,1.867,0,1,0,0,3.734Z" transform="translate(-98.605 -342.197)" fill="#673ab7"/>
      <path id="Trazado_873018" data-name="Trazado 873018" d="M30.867,398.9A1.867,1.867,0,0,0,29,400.772v4.979a1.867,1.867,0,0,0,3.734,0v-4.979A1.867,1.867,0,0,0,30.867,398.9Z" transform="translate(-21.78 -304.204)" fill="#673ab7"/>
      <path id="Trazado_873019" data-name="Trazado 873019" d="M278.344,334.652c-1.141,1.453-1.406,1.794-1.406,2.491a1.869,1.869,0,0,0,3.384,1.09,33.744,33.744,0,0,1,3-3.637,1.867,1.867,0,0,0-2.7-2.575C279.824,332.858,279.058,333.742,278.344,334.652Z" transform="translate(-207.994 -253.536)" fill="#673ab7"/>
      <path id="Trazado_873020" data-name="Trazado 873020" d="M334.552,297.7a1.867,1.867,0,0,0,2.459.962,32.606,32.606,0,0,1,4.435-1.568,1.867,1.867,0,1,0-.987-3.6,36.371,36.371,0,0,0-4.944,1.749A1.867,1.867,0,0,0,334.552,297.7Z" transform="translate(-251.146 -224.984)" fill="#673ab7"/>
      <path id="Trazado_873021" data-name="Trazado 873021" d="M32.734,325.772a1.867,1.867,0,1,0-3.734,0v4.979a1.867,1.867,0,1,0,3.734,0Z" transform="translate(-21.78 -247.875)" fill="#673ab7"/>
      <path id="Trazado_873022" data-name="Trazado 873022" d="M267.425,68.132a10.239,10.239,0,0,0,1.619-19.858,1.867,1.867,0,0,0-1.156,3.551,6.506,6.506,0,1,1-5.565.735,1.867,1.867,0,0,0-2.038-3.129C251.1,55.412,256.572,69.828,267.425,68.132Z" transform="translate(-191.991 -40.794)" fill="#673ab7"/>
      <path id="Trazado_873023" data-name="Trazado 873023" d="M125.275,46.62a10.239,10.239,0,1,0,4.836,18.292A10.253,10.253,0,0,0,125.275,46.62Zm5.076,11.018a6.505,6.505,0,1,1-10.39-6.045A6.512,6.512,0,0,1,130.351,57.638Z" transform="translate(-85.353 -39.548)" fill="#673ab7"/>
      <ellipse id="Elipse_4903" data-name="Elipse 4903" cx="2.256" cy="2.256" rx="2.256" ry="2.256" transform="translate(54.536 37.368)" fill="#673ab7"/>
    </g>
  </g>
</svg>
