<svg xmlns="http://www.w3.org/2000/svg" width="142.821" height="142.821" viewBox="0 0 142.821 142.821">
  <g id="Grupo_1098277" data-name="Grupo 1098277" transform="translate(-194.816 -15120.682)">
    <g id="Grupo_1098239" data-name="Grupo 1098239" transform="translate(-85.184 12553.565)">
      <circle id="Elipse_1792" data-name="Elipse 1792" cx="71.41" cy="71.41" r="71.41" transform="translate(280 2567.116)" fill="#ffd54f"/>
    </g>
    <g id="sewing-kit" transform="translate(212.988 15135.986)">
      <g id="Grupo_1098237" data-name="Grupo 1098237" transform="translate(0 0)">
        <path id="Trazado_873055" data-name="Trazado 873055" d="M172.494,70.49a1.324,1.324,0,1,0,1.324,1.324A1.324,1.324,0,0,0,172.494,70.49Z" transform="translate(-96.344 -39.805)" fill="#673ab7"/>
        <path id="Trazado_873056" data-name="Trazado 873056" d="M211.065,31.925a8.156,8.156,0,1,0-10.191-5.4A8.166,8.166,0,0,0,211.065,31.925Zm-3.733-12.158a4.562,4.562,0,1,1-3.022,5.7,4.567,4.567,0,0,1,3.022-5.7Z" transform="translate(-112.504 -9.781)" fill="#673ab7"/>
        <path id="Trazado_873057" data-name="Trazado 873057" d="M206.275,110.546a8.156,8.156,0,1,0-5.4-10.191A8.165,8.165,0,0,0,206.275,110.546Zm-1.967-9.136a4.562,4.562,0,1,1,3.022,5.7A4.56,4.56,0,0,1,204.307,101.41Z" transform="translate(-112.501 -53.077)" fill="#673ab7"/>
        <path id="Trazado_873058" data-name="Trazado 873058" d="M107.731,91.915h-2.614V75.983a1.8,1.8,0,1,0-3.594,0V91.915H51.435L47.69,64.664a3.372,3.372,0,0,0,4.741.921c8.587-5.85,3.161-2.062,26.778-18.77a1.8,1.8,0,0,0,.564-.652c1.688-3.319,1.334-2.633,1.8-3.5l5.269,6a14.338,14.338,0,1,0,5.771-8.535L87.366,34.2l5.246-5.917a14.319,14.319,0,1,0-5.769-8.536l-5.269,6c-.446-.83-.12-.2-1.8-3.5a1.8,1.8,0,0,0-.564-.652C55.558,4.861,60.963,8.635,52.43,2.822,49,.488,45.231,5.214,48.053,7.978L69.879,29.354,74.141,34.2l-4.262,4.851c-.078.076-21.846,21.391-21.918,21.473a3.454,3.454,0,0,0-.678,1.172l-1.96-14.264a5.947,5.947,0,0,0-5.617-5.108V40.288a5.542,5.542,0,0,0-5.535-5.535h-11a5.542,5.542,0,0,0-5.535,5.535v2.049a5.953,5.953,0,0,0-5.446,5.083l-7.5,53.487a5.929,5.929,0,0,0,5.869,6.75H17.64v2.029a5.542,5.542,0,0,0,5.535,5.535H34.171a5.542,5.542,0,0,0,5.535-5.535v-2.029h7.1a5.929,5.929,0,0,0,5.871-6.733l-.744-5.415h49.594v3.95a1.8,1.8,0,0,0,3.594,0v-3.95h2.614a4.17,4.17,0,0,1,4.165,4.165v2.393a1.8,1.8,0,0,0,3.594,0V99.674a7.768,7.768,0,0,0-7.759-7.76Zm-17.189-43.2a10.729,10.729,0,1,1,7.107,13.406A10.741,10.741,0,0,1,90.541,48.717ZM97.649,6.284A10.73,10.73,0,1,1,90.541,19.69,10.738,10.738,0,0,1,97.649,6.284ZM88.3,23.537a14.159,14.159,0,0,0,1.64,2.345l-4.974,5.611-.776-.876-.8-1.491ZM72.442,26.832,52.224,7.031c6.208,4.229,1.357.834,24.547,17.241,1.6,3.15.658,1.356,4.349,8.23a1.79,1.79,0,0,0,.239.342l8.583,9.683A14.212,14.212,0,0,0,88.3,44.871c-.071-.081-15.78-17.963-15.857-18.039Zm0,14.743c.032-.031.063-.064.093-.1l4-4.551,2.508,2.854c-1.25,2.326-.732,1.333-2.27,4.356C53.605,60.526,58.424,57.152,52.225,61.375ZM44.46,67.561,22.81,45.911h6.81L43.376,59.67Zm-5.008-21.65a2.341,2.341,0,0,1,2.31,2.014l.8,5.851L34.7,45.911ZM21.234,40.287a1.943,1.943,0,0,1,1.941-1.941H34.17a1.943,1.943,0,0,1,1.941,1.941v2.029H21.234V40.287Zm-5.481,7.631a2.338,2.338,0,0,1,2-1.979L45.27,73.454l1.084,7.887L15.407,50.394Zm-.973,6.934L47.164,87.235l1.084,7.887-34.3-34.3ZM40.362,92.32,28.619,104.063H21.812L36.96,88.918ZM13.318,65.276l3.266,3.266-4.333,4.333Zm-1.9,13.513,7.7-7.7,3.4,3.4L10.311,86.7ZM9.482,92.616,25.07,77.028l3.4,3.4-20.1,20.1Zm7.246,11.447h-6.17a2.366,2.366,0,0,1-.564-.07L31.016,82.974l3.4,3.4Zm19.383,5.623a1.943,1.943,0,0,1-1.941,1.941H23.176a1.943,1.943,0,0,1-1.941-1.941v-2.029H36.112v2.029Zm4.413-5.623H33.7l9.2-9.2,3.411,3.411Zm8.034-.8a2.3,2.3,0,0,1-1.758.8H45.608l3.248-3.248.2.2a2.5,2.5,0,0,1-.5,2.249Z" transform="translate(-4.631 -2.195)" fill="#673ab7"/>
        <path id="Trazado_873059" data-name="Trazado 873059" d="M150.7,168.549a5.822,5.822,0,0,0-5.527,4.017H119.047a1.8,1.8,0,1,0,0,3.594H145.17a5.813,5.813,0,1,0,5.527-7.612Zm0,8.034a2.22,2.22,0,1,1,2.22-2.22A2.222,2.222,0,0,1,150.7,176.583Z" transform="translate(-66.65 -93.806)" fill="#673ab7"/>
        <path id="Trazado_873060" data-name="Trazado 873060" d="M154.714,145.54H128.591a5.814,5.814,0,1,0,0,3.594h26.123a1.8,1.8,0,0,0,0-3.594Zm-31.65,4.017a2.22,2.22,0,1,1,2.22-2.22A2.222,2.222,0,0,1,123.064,149.557Z" transform="translate(-66.65 -78.923)" fill="#673ab7"/>
        <path id="Trazado_873061" data-name="Trazado 873061" d="M13,50.492H39.126a5.814,5.814,0,1,0,0-3.594H13a1.8,1.8,0,1,0,0,3.594Zm31.65-4.017a2.22,2.22,0,1,1-2.22,2.22A2.222,2.222,0,0,1,44.653,46.474Z" transform="translate(-8.252 -24.6)" fill="#673ab7"/>
        <path id="Trazado_873062" data-name="Trazado 873062" d="M17.02,27.484a5.822,5.822,0,0,0,5.527-4.017H48.67a1.8,1.8,0,1,0,0-3.594H22.547a5.813,5.813,0,1,0-5.527,7.612Zm0-8.034a2.22,2.22,0,1,1-2.22,2.22A2.222,2.222,0,0,1,17.02,19.449Z" transform="translate(-8.252 -9.717)" fill="#673ab7"/>
      </g>
    </g>
  </g>
</svg>
