<svg xmlns="http://www.w3.org/2000/svg" width="610" height="414" viewBox="0 0 610 414">
  <g id="Grupo_1098276" data-name="Grupo 1098276" transform="translate(-180 -16977)">
    <rect id="Rect치ngulo_25795" data-name="Rect치ngulo 25795" width="610" height="414" rx="10" transform="translate(180 16977)" fill="#d1bcff" opacity="0.2"/>
    <text id="Cabeza_de_manga_deportiva_sisa_delantera_sisa_posterior_5_Cabeza_de_manga_casual_sisa_delantera_sisa_posterior_4_Cabeza_de_manga_sastre_o_formal_sisa_delantera_sisa_posterior_3" data-name="Cabeza de manga deportiva = sisa delantera + sisa posterior / 5


Cabeza de manga casual = sisa delantera + sisa posterior / 4


Cabeza de manga sastre o formal = sisa delantera + sisa posterior / 3" transform="translate(216 17131)" fill="#12263f" font-size="16" font-family="SegoeUI-Bold, Segoe UI" font-weight="700"><tspan x="29.898" y="17">Cabeza de manga deportiva = sisa delantera + sisa posterior / 5</tspan><tspan x="269" y="41"></tspan><tspan x="269" y="65"></tspan><tspan x="43.27" y="89">Cabeza de manga casual = sisa delantera + sisa posterior / 4</tspan><tspan x="269" y="113"></tspan><tspan x="269" y="137"></tspan><tspan x="10.039" y="161">Cabeza de manga sastre o formal = sisa delantera + sisa posterior / 3</tspan></text>
    <g id="Grupo_1098258" data-name="Grupo 1098258" transform="translate(-33.381 19.208)">
      <path id="Trazado_67689" data-name="Trazado 67689" d="M21.882,6.508,2.928,38.27a4.493,4.493,0,0,0,3.827,6.739H44.663A4.493,4.493,0,0,0,48.49,38.27L29.536,6.508a4.467,4.467,0,0,0-7.653,0Z" transform="translate(492.672 17026.219)" fill="none" stroke="#673ab7" stroke-linecap="round" stroke-linejoin="round" stroke-width="3"/>
      <path id="Trazado_67690" data-name="Trazado 67690" d="M18,13.5v9.335" transform="translate(500.381 17030.619)" fill="none" stroke="#673ab7" stroke-linecap="round" stroke-linejoin="round" stroke-width="3"/>
      <path id="Trazado_67691" data-name="Trazado 67691" d="M18,25.5h0" transform="translate(500.381 17036.74)" fill="none" stroke="#673ab7" stroke-linecap="round" stroke-linejoin="round" stroke-width="3"/>
    </g>
    <g id="Rect치ngulo_25797" data-name="Rect치ngulo 25797" transform="translate(202 16998)" fill="none" stroke="#673ab7" stroke-width="2">
      <rect width="563" height="372" rx="10" stroke="none"/>
      <rect x="1" y="1" width="561" height="370" rx="9" fill="none"/>
    </g>
  </g>
</svg>
