<svg xmlns="http://www.w3.org/2000/svg" width="84.54" height="96.063" viewBox="0 0 84.54 96.063">
  <g id="video" transform="translate(0)">
    <path id="Trazado_873063" data-name="Trazado 873063" d="M106.191,216.676v44.967a8.59,8.59,0,0,1-8.565,8.565h-60.1a8.59,8.59,0,0,1-8.565-8.565V216.676Zm0,0" transform="translate(-23.527 -176.023)" fill="#d0d7df" fill-rule="evenodd"/>
    <path id="Trazado_873064" data-name="Trazado 873064" d="M10.353,37.669l3.217,11.107,74.18-21.489L84.534,16.18a8.59,8.59,0,0,0-10.61-5.843L16.2,27.059A8.59,8.59,0,0,0,10.353,37.669Zm0,0" transform="translate(-8.137 -8.123)" fill="#673ab7" fill-rule="evenodd"/>
    <path id="Trazado_873065" data-name="Trazado 873065" d="M28.961,216.676h77.23v17.559H28.961Zm0,0" transform="translate(-23.527 -176.023)" fill="#895cd8" fill-rule="evenodd"/>
    <path id="Trazado_873066" data-name="Trazado 873066" d="M222.55,363.907l-8.241-4.758-8.242-4.759v19.033l8.242-4.759Zm0,0" transform="translate(-167.404 -287.9)" fill="#ffd54f" fill-rule="evenodd"/>
    <path id="Trazado_873067" data-name="Trazado 873067" d="M82.664,38.777H18.653L80.136,20.966a1.877,1.877,0,0,0,1.28-2.324L78.2,7.535A10.5,10.5,0,0,0,68.154,0a10.4,10.4,0,0,0-2.89.411L7.538,17.134A10.466,10.466,0,0,0,.414,30.068L3.558,40.919v44.7A10.453,10.453,0,0,0,14,96.062H36.544a1.876,1.876,0,1,0,0-3.752H14A6.7,6.7,0,0,1,7.31,85.62V60.088H80.788V85.62A6.7,6.7,0,0,1,74.1,92.309H51.553a1.876,1.876,0,1,0,0,3.752H74.1A10.453,10.453,0,0,0,84.54,85.62V40.653A1.876,1.876,0,0,0,82.664,38.777ZM49.58,56.335l7.972-13.806H67.92L59.949,56.335Zm-14.7,0L42.85,42.529H53.218L45.247,56.335Zm-14.7,0,7.971-13.806H38.517L30.546,56.335Zm6.976-24.289L13.8,19.225l10-2.9a1.861,1.861,0,0,0,.246.289L37.4,29.439l-10,2.9A1.867,1.867,0,0,0,27.153,32.046ZM52.294,8.436,65.643,21.258l-10,2.9a1.828,1.828,0,0,0-.246-.289L42.046,11.044l10-2.9A1.861,1.861,0,0,0,52.294,8.436ZM38.173,12.527l13.349,12.82-10,2.9a1.828,1.828,0,0,0-.246-.289L27.925,15.135l10-2.9A1.982,1.982,0,0,0,38.173,12.527ZM66.309,4.016a6.634,6.634,0,0,1,1.845-.263,6.732,6.732,0,0,1,6.441,4.827l2.7,9.3-7.528,2.18a1.907,1.907,0,0,0-.247-.289L56.168,6.954ZM4.593,23.941a6.64,6.64,0,0,1,3.989-3.2l1.1-.32a1.908,1.908,0,0,0,.246.289L23.28,33.529l-16.566,4.8-2.7-9.3A6.642,6.642,0,0,1,4.593,23.941ZM7.31,42.529H23.815L15.845,56.335H7.31ZM64.282,56.335l7.971-13.806h8.535V56.335Zm0,0" fill-rule="evenodd"/>
    <path id="Trazado_873068" data-name="Trazado 873068" d="M216.3,355.784a1.876,1.876,0,0,0-.938-1.625l-16.483-9.517a1.876,1.876,0,0,0-2.814,1.625V365.3a1.875,1.875,0,0,0,2.814,1.624l16.483-9.516A1.876,1.876,0,0,0,216.3,355.784Zm-16.483,6.267V349.517l10.855,6.267Zm0,0" transform="translate(-159.28 -279.777)" fill-rule="evenodd"/>
    <path id="Trazado_873069" data-name="Trazado 873069" d="M226.65,492a1.876,1.876,0,1,0,1.876,1.876A1.88,1.88,0,0,0,226.65,492Zm0,0" transform="translate(-182.601 -399.691)" fill-rule="evenodd"/>
  </g>
</svg>
