<svg xmlns="http://www.w3.org/2000/svg" width="287.396" height="310.688" viewBox="0 0 287.396 310.688">
  <g id="Grupo_1204781" data-name="Grupo 1204781" transform="translate(-814.603 -19795.313)">
    <path id="Trazado_62076" data-name="Trazado 62076" d="M2973.662,732.75a17.045,17.045,0,0,1-17.026-17.026V588.068l-37.613-21.492a17.289,17.289,0,0,1-6.9-22.662l39.153-78.987a20.383,20.383,0,0,1,7.389-8.189l48.212-30.427a27.408,27.408,0,0,1,27.756-.913c7.813,4.266,14.835,6.341,21.463,6.341a32.149,32.149,0,0,0,17.26-5.208,27.467,27.467,0,0,1,29.136.262l46.981,29.988a20.412,20.412,0,0,1,7.3,8.127l39.161,79a17.288,17.288,0,0,1-6.906,22.664l-37.612,21.493V715.724a17.045,17.045,0,0,1-17.025,17.026Z" transform="translate(-2095.722 19373.25)" fill="#fade93"/>
    <path id="Trazado_62077" data-name="Trazado 62077" d="M3186.649,548.26l-39.159-79a10.229,10.229,0,0,0-3.658-4.076l-46.981-29.989a17.3,17.3,0,0,0-18.316-.185c-14.946,9.246-30.957,8.967-48.945-.855a17.249,17.249,0,0,0-17.458.588l-8.1,5.114-.028.017-40.085,25.3a10.2,10.2,0,0,0-3.7,4.1l-39.152,78.987a7.109,7.109,0,0,0,2.839,9.32L2966.636,582V715.555a6.867,6.867,0,0,0,6.859,6.859h160.722a6.868,6.868,0,0,0,6.859-6.859V669.771a4.289,4.289,0,0,0-8.578,0v44.067H2975.213V528.558a4.289,4.289,0,1,0-8.577,0v43.563l-37.271-21.3,38.534-77.742a1.631,1.631,0,0,1,.6-.659l34.841-21.989a52.412,52.412,0,0,0,10.185,19.481,4.289,4.289,0,0,0,6.6-5.478,43.753,43.753,0,0,1-9.143-18.826l5.731-3.617c.178-.112.36-.217.545-.315a36.97,36.97,0,0,0,73.225-.115,8.736,8.736,0,0,1,1.757.859l4.549,2.9a43.79,43.79,0,0,1-64.655,29.215,4.288,4.288,0,1,0-4.267,7.44,52.361,52.361,0,0,0,76.569-31.773l34.785,22.2a1.663,1.663,0,0,1,.587.656l38.542,77.756-37.271,21.3V528.556a4.289,4.289,0,1,0-8.578,0v124.06a4.289,4.289,0,1,0,8.578,0V582l42.734-24.42a7.11,7.11,0,0,0,2.839-9.32Zm-132.794-83.371a28.388,28.388,0,0,1-27.864-22.936c19.827,10.662,38.473,11.1,55.455,1.3A28.262,28.262,0,0,1,3053.855,464.889Z" transform="translate(-2095.554 19373.418)" fill="#64593b"/>
    <path id="Trazado_62078" data-name="Trazado 62078" d="M2990.849,575.326h-2.795V572.9h8.264v2.43h-2.795v14.584h-2.674Z" transform="translate(-2094.419 19375.777)" fill="#64593b"/>
    <path id="Trazado_62079" data-name="Trazado 62079" d="M2997.449,572.9h7.292v2.43h-4.618v4.5h3.669v2.431h-3.669v5.225h4.618v2.431h-7.292Z" transform="translate(-2094.261 19375.777)" fill="#64593b"/>
    <path id="Trazado_62080" data-name="Trazado 62080" d="M3006.127,572.9h3.354l2.6,10.184h.049V572.9h2.382v17.015h-2.746l-3.208-12.421h-.049v12.421h-2.382Z" transform="translate(-2094.116 19375.777)" fill="#64593b"/>
    <path id="Trazado_62081" data-name="Trazado 62081" d="M3016.335,572.9h7.292v2.43h-4.619v4.5h3.67v2.431h-3.67v5.225h4.619v2.431h-7.292Z" transform="translate(-2093.945 19375.777)" fill="#64593b"/>
    <path id="Trazado_62082" data-name="Trazado 62082" d="M3025.013,572.9h3.961a3.418,3.418,0,0,1,3.962,3.913v1.045q0,2.651-1.75,3.354v.049a2.092,2.092,0,0,1,1.374,1.192,6.018,6.018,0,0,1,.4,2.406v2.99a11.476,11.476,0,0,0,.048,1.178,2.913,2.913,0,0,0,.243.888h-2.723a3.858,3.858,0,0,1-.194-.778,11.621,11.621,0,0,1-.049-1.313v-3.111a2.65,2.65,0,0,0-.377-1.629,1.594,1.594,0,0,0-1.3-.462h-.922v7.292h-2.674Zm3.646,7.291a1.605,1.605,0,0,0,1.2-.413,1.954,1.954,0,0,0,.4-1.386v-1.313a2.169,2.169,0,0,0-.327-1.337,1.241,1.241,0,0,0-1.033-.413h-1.215v4.861Z" transform="translate(-2093.8 19375.777)" fill="#64593b"/>
    <path id="Trazado_62083" data-name="Trazado 62083" d="M3038.472,572.9h7.293v2.43h-4.619v4.5h3.67v2.431h-3.67v5.225h4.619v2.431h-7.293Z" transform="translate(-2093.573 19375.777)" fill="#64593b"/>
    <path id="Trazado_62084" data-name="Trazado 62084" d="M3047.149,572.9h3.354l2.6,10.184h.048V572.9h2.381v17.015h-2.746l-3.208-12.421h-.049v12.421h-2.382Z" transform="translate(-2093.428 19375.777)" fill="#64593b"/>
    <path id="Trazado_62085" data-name="Trazado 62085" d="M3062.023,589.064a4.389,4.389,0,0,1-1.009-3.087v-9.139a4.391,4.391,0,0,1,1.009-3.088,4.469,4.469,0,0,1,5.858,0,4.391,4.391,0,0,1,1.009,3.088v1.8h-2.529v-1.969q0-1.58-1.336-1.58t-1.337,1.58v9.5q0,1.557,1.337,1.557t1.336-1.557v-2.6h2.529v2.406a4.389,4.389,0,0,1-1.009,3.087,4.469,4.469,0,0,1-5.858,0Z" transform="translate(-2093.196 19375.773)" fill="#64593b"/>
    <path id="Trazado_62086" data-name="Trazado 62086" d="M3071.263,589.047a4.5,4.5,0,0,1-1.021-3.172V572.9h2.674V586.07a1.85,1.85,0,0,0,.354,1.264,1.5,1.5,0,0,0,2.016,0,1.847,1.847,0,0,0,.353-1.264V572.9h2.577v12.979a4.507,4.507,0,0,1-1.021,3.172,4.528,4.528,0,0,1-5.931,0Z" transform="translate(-2093.041 19375.777)" fill="#64593b"/>
    <path id="Trazado_62087" data-name="Trazado 62087" d="M3079.948,572.9h7.292v2.43h-4.618v4.5h3.671v2.431h-3.671v5.225h4.618v2.431h-7.292Z" transform="translate(-2092.878 19375.777)" fill="#64593b"/>
    <path id="Trazado_62088" data-name="Trazado 62088" d="M3088.626,572.9h3.355l2.6,10.184h.049V572.9h2.382v17.015h-2.746l-3.208-12.421h-.049v12.421h-2.382Z" transform="translate(-2092.733 19375.777)" fill="#64593b"/>
    <path id="Trazado_62089" data-name="Trazado 62089" d="M3100.936,575.326h-2.794V572.9h8.264v2.43h-2.8v14.584h-2.674Z" transform="translate(-2092.574 19375.777)" fill="#64593b"/>
    <path id="Trazado_62090" data-name="Trazado 62090" d="M3108.515,572.9h3.621l2.771,17.015h-2.674l-.487-3.379v.048h-3.038l-.485,3.331h-2.48Zm2.916,11.375-1.19-8.411h-.049l-1.167,8.411Z" transform="translate(-2092.446 19375.777)" fill="#64593b"/>
    <path id="Trazado_62091" data-name="Trazado 62091" d="M2998.633,596.8h7.292v2.43h-4.618v4.5h3.669v2.431h-3.669v5.226h4.618v2.43h-7.292Z" transform="translate(-2094.241 19376.178)" fill="#64593b"/>
    <path id="Trazado_62092" data-name="Trazado 62092" d="M3007.311,596.8h2.673v14.584h4.4v2.43h-7.073Z" transform="translate(-2094.096 19376.178)" fill="#64593b"/>
    <path id="Trazado_62093" data-name="Trazado 62093" d="M3021.438,596.8h3.62l2.772,17.014h-2.674l-.487-3.379v.049h-3.038l-.486,3.33h-2.479Zm2.916,11.375-1.19-8.411h-.049l-1.166,8.411Z" transform="translate(-2093.905 19376.178)" fill="#64593b"/>
    <path id="Trazado_62094" data-name="Trazado 62094" d="M3028.945,596.8h3.354l2.6,10.184h.049V596.8h2.381v17.014h-2.747l-3.208-12.421h-.048v12.421h-2.383Z" transform="translate(-2093.734 19376.178)" fill="#64593b"/>
    <path id="Trazado_62095" data-name="Trazado 62095" d="M3041.231,596.867h3.621l2.771,17.015h-2.674l-.486-3.379v.049h-3.039l-.486,3.33h-2.479Zm2.065-3.938h2.917l-2.6,2.8H3041.6Zm.851,15.313-1.191-8.411h-.048l-1.167,8.411Z" transform="translate(-2093.574 19376.113)" fill="#64593b"/>
    <path id="Trazado_62096" data-name="Trazado 62096" d="M3048.739,596.8h2.674v14.584h4.4v2.43h-7.072Z" transform="translate(-2093.402 19376.178)" fill="#64593b"/>
    <path id="Trazado_62097" data-name="Trazado 62097" d="M3056.963,596.8h2.674v17.014h-2.674Z" transform="translate(-2093.264 19376.178)" fill="#64593b"/>
    <path id="Trazado_62098" data-name="Trazado 62098" d="M3062.094,612.958a4.587,4.587,0,0,1-1-3.173v-.972h2.528v1.167q0,1.653,1.385,1.653a1.3,1.3,0,0,0,1.033-.4,1.946,1.946,0,0,0,.354-1.3,3.613,3.613,0,0,0-.487-1.884,9.029,9.029,0,0,0-1.8-1.956,10.77,10.77,0,0,1-2.311-2.638,5.383,5.383,0,0,1-.656-2.661,4.435,4.435,0,0,1,1.021-3.124,3.836,3.836,0,0,1,2.965-1.105,3.691,3.691,0,0,1,2.906,1.105,4.628,4.628,0,0,1,.984,3.173v.7h-2.529v-.875a1.945,1.945,0,0,0-.341-1.276,1.23,1.23,0,0,0-1-.4q-1.337,0-1.338,1.629a3.206,3.206,0,0,0,.5,1.725,9.547,9.547,0,0,0,1.811,1.945,10.016,10.016,0,0,1,2.309,2.65,5.885,5.885,0,0,1,.632,2.8,4.565,4.565,0,0,1-1.032,3.209,3.889,3.889,0,0,1-3,1.117A3.759,3.759,0,0,1,3062.094,612.958Z" transform="translate(-2093.195 19376.174)" fill="#64593b"/>
    <path id="Trazado_62099" data-name="Trazado 62099" d="M3070.445,596.8h2.674v17.014h-2.674Z" transform="translate(-2093.038 19376.178)" fill="#64593b"/>
    <path id="Trazado_62100" data-name="Trazado 62100" d="M3075.578,612.958a4.58,4.58,0,0,1-1-3.173v-.972h2.528v1.167q0,1.653,1.386,1.653a1.3,1.3,0,0,0,1.032-.4,1.943,1.943,0,0,0,.353-1.3,3.6,3.6,0,0,0-.486-1.884,9.021,9.021,0,0,0-1.8-1.956,10.78,10.78,0,0,1-2.311-2.638,5.4,5.4,0,0,1-.655-2.661,4.433,4.433,0,0,1,1.021-3.124,3.832,3.832,0,0,1,2.965-1.105,3.686,3.686,0,0,1,2.9,1.105,4.621,4.621,0,0,1,.984,3.173v.7h-2.528v-.875a1.954,1.954,0,0,0-.34-1.276,1.234,1.234,0,0,0-1-.4q-1.337,0-1.337,1.629a3.218,3.218,0,0,0,.5,1.725,9.518,9.518,0,0,0,1.811,1.945,10.035,10.035,0,0,1,2.31,2.65,5.891,5.891,0,0,1,.631,2.8,4.563,4.563,0,0,1-1.033,3.209,3.886,3.886,0,0,1-3,1.117A3.755,3.755,0,0,1,3075.578,612.958Z" transform="translate(-2092.969 19376.174)" fill="#64593b"/>
    <path id="Trazado_62101" data-name="Trazado 62101" d="M3087.753,596.8h4.083a3.892,3.892,0,0,1,2.989,1.07,4.445,4.445,0,0,1,1,3.136v8.6a4.446,4.446,0,0,1-1,3.136,3.892,3.892,0,0,1-2.989,1.069h-4.083Zm4.034,14.584a1.29,1.29,0,0,0,1.009-.39,1.855,1.855,0,0,0,.353-1.264v-8.849a1.855,1.855,0,0,0-.353-1.263,1.294,1.294,0,0,0-1.009-.389h-1.36v12.154Z" transform="translate(-2092.748 19376.178)" fill="#64593b"/>
    <path id="Trazado_62102" data-name="Trazado 62102" d="M3097.459,596.8h7.292v2.43h-4.618v4.5h3.669v2.431h-3.669v5.226h4.618v2.43h-7.292Z" transform="translate(-2092.585 19376.178)" fill="#64593b"/>
    <path id="Trazado_62103" data-name="Trazado 62103" d="M3003.825,636.876a4.378,4.378,0,0,1-1.01-3.087v-9.139a4.382,4.382,0,0,1,1.01-3.087,4.467,4.467,0,0,1,5.857,0,4.389,4.389,0,0,1,1.009,3.087v1.8h-2.528V624.48q0-1.579-1.336-1.58t-1.338,1.58v9.5q0,1.556,1.338,1.556t1.336-1.556v-2.6h2.528v2.406a4.385,4.385,0,0,1-1.009,3.087,4.464,4.464,0,0,1-5.857,0Z" transform="translate(-2094.172 19376.574)" fill="#64593b"/>
    <path id="Trazado_62104" data-name="Trazado 62104" d="M3014.218,620.709h3.62l2.772,17.014h-2.674l-.486-3.379v.049h-3.039l-.485,3.33h-2.479Zm2.916,11.375-1.191-8.411h-.049l-1.166,8.411Z" transform="translate(-2094.026 19376.578)" fill="#64593b"/>
    <path id="Trazado_62105" data-name="Trazado 62105" d="M3021.726,620.709h4.082a3.9,3.9,0,0,1,2.991,1.069,4.443,4.443,0,0,1,1,3.136v8.6a4.446,4.446,0,0,1-1,3.136,3.9,3.9,0,0,1-2.991,1.068h-4.082Zm4.034,14.584a1.289,1.289,0,0,0,1.009-.389,1.855,1.855,0,0,0,.352-1.264v-8.848a1.855,1.855,0,0,0-.352-1.264,1.3,1.3,0,0,0-1.009-.388h-1.36v12.153Z" transform="translate(-2093.854 19376.578)" fill="#64593b"/>
    <path id="Trazado_62106" data-name="Trazado 62106" d="M3033.461,620.709h3.622l2.771,17.014h-2.674l-.486-3.379v.049h-3.04l-.485,3.33h-2.479Zm2.916,11.375-1.19-8.411h-.049l-1.166,8.411Z" transform="translate(-2093.705 19376.578)" fill="#64593b"/>
    <path id="Trazado_62107" data-name="Trazado 62107" d="M3044.8,620.709h3.936a3.9,3.9,0,0,1,2.99,1.069,4.439,4.439,0,0,1,1,3.136v1.677a4.438,4.438,0,0,1-1,3.136,3.9,3.9,0,0,1-2.99,1.07h-1.263v6.927H3044.8Zm3.936,7.656a1.258,1.258,0,0,0,.986-.364,1.849,1.849,0,0,0,.327-1.24v-2.016a1.85,1.85,0,0,0-.327-1.24,1.259,1.259,0,0,0-.986-.364h-1.263v5.225Z" transform="translate(-2093.468 19376.578)" fill="#64593b"/>
    <path id="Trazado_62108" data-name="Trazado 62108" d="M3054.022,620.709h3.963a3.417,3.417,0,0,1,3.961,3.913v1.045q0,2.649-1.75,3.354v.049a2.088,2.088,0,0,1,1.374,1.191,5.992,5.992,0,0,1,.4,2.407v2.989a11.039,11.039,0,0,0,.049,1.179,2.9,2.9,0,0,0,.243.887h-2.723a3.878,3.878,0,0,1-.194-.777,11.59,11.59,0,0,1-.049-1.312v-3.112a2.64,2.64,0,0,0-.376-1.628,1.593,1.593,0,0,0-1.3-.463h-.925v7.292h-2.674Zm3.646,7.292a1.613,1.613,0,0,0,1.2-.413,1.959,1.959,0,0,0,.4-1.387v-1.313a2.161,2.161,0,0,0-.328-1.336,1.237,1.237,0,0,0-1.032-.413H3056.7V628Z" transform="translate(-2093.313 19376.578)" fill="#64593b"/>
    <path id="Trazado_62109" data-name="Trazado 62109" d="M3063.656,620.709h7.292v2.431h-4.618v4.5H3070v2.431h-3.67v5.226h4.618v2.43h-7.292Z" transform="translate(-2093.152 19376.578)" fill="#64593b"/>
    <path id="Trazado_62110" data-name="Trazado 62110" d="M3072.334,620.709h3.354l2.6,10.185h.049V620.709h2.383v17.014h-2.747l-3.208-12.42h-.049v12.42h-2.382Z" transform="translate(-2093.007 19376.578)" fill="#64593b"/>
    <path id="Trazado_62111" data-name="Trazado 62111" d="M3082.542,620.709h4.083a3.892,3.892,0,0,1,2.989,1.069,4.441,4.441,0,0,1,1,3.136v8.6a4.445,4.445,0,0,1-1,3.136,3.892,3.892,0,0,1-2.989,1.068h-4.083Zm4.035,14.584a1.29,1.29,0,0,0,1.009-.389,1.858,1.858,0,0,0,.353-1.264v-8.848a1.858,1.858,0,0,0-.353-1.264,1.3,1.3,0,0,0-1.009-.388h-1.36v12.153Z" transform="translate(-2092.835 19376.578)" fill="#64593b"/>
    <path id="Trazado_62112" data-name="Trazado 62112" d="M3094.277,620.709h3.622l2.771,17.014H3098l-.487-3.379v.049h-3.038l-.486,3.33h-2.479Zm2.917,11.375-1.19-8.411h-.049l-1.167,8.411Z" transform="translate(-2092.685 19376.578)" fill="#64593b"/>
    <path id="Trazado_1261951" data-name="Trazado 1261951" d="M0,0H146.733V42.73H0Z" transform="translate(884.477 19898.904)" fill="#64593b"/>
    <path id="Trazado_62113" data-name="Trazado 62113" d="M2989.058,529.946h6.907q3.6,0,5.254,1.674t1.652,5.148v1.823q0,4.62-3.05,5.847v.084a3.646,3.646,0,0,1,2.394,2.076,10.469,10.469,0,0,1,.7,4.2v5.213a19.608,19.608,0,0,0,.085,2.055,5.1,5.1,0,0,0,.423,1.546h-4.746a6.73,6.73,0,0,1-.339-1.356,20.249,20.249,0,0,1-.084-2.288v-5.424a4.6,4.6,0,0,0-.658-2.839,2.781,2.781,0,0,0-2.267-.805h-1.61v12.712h-4.661Zm6.356,12.712a2.8,2.8,0,0,0,2.1-.72,3.406,3.406,0,0,0,.7-2.416v-2.288a3.768,3.768,0,0,0-.572-2.33,2.161,2.161,0,0,0-1.8-.721h-2.119v8.475Z" transform="translate(-2094.402 19375.059)" fill="#fade93"/>
    <path id="Trazado_62114" data-name="Trazado 62114" d="M3005.854,529.946h12.711v4.237h-8.05v7.839h6.4v4.238h-6.4v9.11h8.05v4.238h-12.711Z" transform="translate(-2094.12 19375.059)" fill="#fade93"/>
    <path id="Trazado_62115" data-name="Trazado 62115" d="M3022.448,558.132a7.648,7.648,0,0,1-1.759-5.382V536.817a7.651,7.651,0,0,1,1.759-5.382,7.792,7.792,0,0,1,10.213,0,7.655,7.655,0,0,1,1.758,5.382v3.136h-4.406V536.52q0-2.753-2.331-2.754t-2.332,2.754v16.569q0,2.712,2.332,2.712t2.331-2.712v-4.535h4.406v4.2a7.652,7.652,0,0,1-1.758,5.382,7.789,7.789,0,0,1-10.213,0Z" transform="translate(-2093.871 19375.051)" fill="#fade93"/>
    <path id="Trazado_62116" data-name="Trazado 62116" d="M3038.555,558.1a7.864,7.864,0,0,1-1.779-5.53V529.946h4.661v22.967a3.234,3.234,0,0,0,.615,2.2,2.62,2.62,0,0,0,3.518,0,3.237,3.237,0,0,0,.613-2.2V529.946h4.493v22.628a7.864,7.864,0,0,1-1.78,5.53,7.9,7.9,0,0,1-10.339,0Z" transform="translate(-2093.602 19375.059)" fill="#fade93"/>
    <path id="Trazado_62117" data-name="Trazado 62117" d="M3053.7,529.946h12.712v4.237h-8.051v7.839h6.4v4.238h-6.4v9.11h8.051v4.238H3053.7Z" transform="translate(-2093.318 19375.059)" fill="#fade93"/>
    <path id="Trazado_62118" data-name="Trazado 62118" d="M3068.824,529.946h6.906q3.6,0,5.255,1.674t1.652,5.148v1.823q0,4.62-3.05,5.847v.084a3.644,3.644,0,0,1,2.395,2.076,10.47,10.47,0,0,1,.7,4.2v5.213a19.764,19.764,0,0,0,.084,2.055,5.141,5.141,0,0,0,.424,1.546h-4.746a6.83,6.83,0,0,1-.339-1.356,20.616,20.616,0,0,1-.084-2.288v-5.424a4.608,4.608,0,0,0-.657-2.839,2.782,2.782,0,0,0-2.267-.805h-1.611v12.712h-4.661Zm6.355,12.712a2.8,2.8,0,0,0,2.1-.72,3.406,3.406,0,0,0,.7-2.416v-2.288a3.768,3.768,0,0,0-.571-2.33,2.161,2.161,0,0,0-1.8-.721h-2.119v8.475Z" transform="translate(-2093.064 19375.059)" fill="#fade93"/>
    <path id="Trazado_62119" data-name="Trazado 62119" d="M3085.62,529.946h7.119a6.8,6.8,0,0,1,5.213,1.864,7.751,7.751,0,0,1,1.736,5.467v15a7.744,7.744,0,0,1-1.736,5.466,6.789,6.789,0,0,1-5.213,1.865h-7.119Zm7.034,25.424a2.255,2.255,0,0,0,1.759-.677,3.239,3.239,0,0,0,.614-2.2V537.064a3.24,3.24,0,0,0-.614-2.2,2.256,2.256,0,0,0-1.759-.678h-2.373V555.37Z" transform="translate(-2092.783 19375.059)" fill="#fade93"/>
    <path id="Trazado_62120" data-name="Trazado 62120" d="M3102.539,529.946h12.713v4.237H3107.2v7.839h6.4v4.238h-6.4v9.11h8.052v4.238h-12.713Z" transform="translate(-2092.499 19375.059)" fill="#fade93"/>
  </g>
</svg>
