<svg xmlns="http://www.w3.org/2000/svg" width="75" height="75" viewBox="0 0 75 75">
  <g id="Grupo_1204758" data-name="Grupo 1204758" transform="translate(-1070 -8125)">
    <path id="Trazado_1261943" data-name="Trazado 1261943" d="M37.5,0A37.5,37.5,0,1,1,0,37.5,37.5,37.5,0,0,1,37.5,0Z" transform="translate(1070 8125)" fill="#5ec6a3"/>
    <path id="Trazado_1261944" data-name="Trazado 1261944" d="M-1.5-9.406q0,4.719-1.953,7.219A6.818,6.818,0,0,1-9.172.313a6.865,6.865,0,0,1-5.687-2.453q-1.969-2.453-2.016-7.031v-4.187q0-4.766,1.977-7.234a6.869,6.869,0,0,1,5.7-2.469,6.875,6.875,0,0,1,5.688,2.445q1.969,2.445,2.016,7.023Zm-4.516-4.6a8.331,8.331,0,0,0-.773-4.121A2.614,2.614,0,0,0-9.2-19.422a2.567,2.567,0,0,0-2.352,1.228,7.8,7.8,0,0,0-.8,3.84v5.537A8.745,8.745,0,0,0-11.6-4.681a2.579,2.579,0,0,0,2.43,1.353,2.536,2.536,0,0,0,2.391-1.3A8.536,8.536,0,0,0-6.016-8.6Zm12.156.635H8.547a3.391,3.391,0,0,0,2.547-.859,3.149,3.149,0,0,0,.828-2.281,2.784,2.784,0,0,0-.82-2.141,3.179,3.179,0,0,0-2.258-.766,3.332,3.332,0,0,0-2.172.711A2.273,2.273,0,0,0,5.8-16.859H1.281a5.553,5.553,0,0,1,.961-3.2A6.4,6.4,0,0,1,4.93-22.266a8.969,8.969,0,0,1,3.8-.8,8.506,8.506,0,0,1,5.656,1.727,5.891,5.891,0,0,1,2.047,4.758,4.787,4.787,0,0,1-.953,2.875,6.192,6.192,0,0,1-2.5,2.016,5.653,5.653,0,0,1,2.867,2.063,5.6,5.6,0,0,1,.945,3.25,5.988,5.988,0,0,1-2.211,4.859A8.89,8.89,0,0,1,8.734.313a8.429,8.429,0,0,1-5.57-1.8A5.868,5.868,0,0,1,1-6.234H5.516a2.616,2.616,0,0,0,.961,2.094,3.541,3.541,0,0,0,2.367.813,3.558,3.558,0,0,0,2.523-.852,2.94,2.94,0,0,0,.914-2.258q0-3.406-3.75-3.406H6.141Z" transform="translate(1107.875 8174.063)" fill="#214539"/>
  </g>
</svg>
