<svg xmlns="http://www.w3.org/2000/svg" width="67.528" height="67.527" viewBox="0 0 67.528 67.527">
  <g id="website" transform="translate(-2 -2)">
    <circle id="Elipse_4909" data-name="Elipse 4909" cx="32" cy="32" r="32" transform="translate(4 3.527)" fill="#47caf0"/>
    <circle id="Elipse_4910" data-name="Elipse 4910" cx="32" cy="32" r="32" transform="translate(4 3.527)" fill="#895cd8"/>
    <path id="Trazado_873073" data-name="Trazado 873073" d="M28.384,27.876a3.076,3.076,0,0,0-1.3,2.816l2.164,21.9a3.078,3.078,0,0,0,.3,1.025A32.245,32.245,0,0,0,50.982,36.99L31.47,27.624a3.079,3.079,0,0,0-3.088.252Z" transform="translate(13.406 13.54)" fill="#673ab7"/>
    <path id="Trazado_873074" data-name="Trazado 873074" d="M41.367,59.018A32.186,32.186,0,0,1,15.741,7.3,32.2,32.2,0,1,0,60.855,52.416a32.044,32.044,0,0,1-19.488,6.6Z" transform="translate(0.535 2.835)" fill="#673ab7"/>
    <path id="Trazado_873075" data-name="Trazado 873075" d="M32.7,3A32.157,32.157,0,0,0,7.73,14.863,32.22,32.22,0,0,1,53.065,60.2,32.222,32.222,0,0,0,32.7,3Z" transform="translate(3.064 0.535)" fill="#673ab7"/>
    <path id="Trazado_873076" data-name="Trazado 873076" d="M52.111,36,32.272,26.472a1.535,1.535,0,0,0-2.192,1.535l2.164,21.9a1.535,1.535,0,0,0,2.66.886l4.049-4.421,4.695,6.705a3.068,3.068,0,0,0,4.274.754l2.514-1.76a3.068,3.068,0,0,0,.754-4.274L46.494,41.09l5.54-2.291a1.536,1.536,0,0,0,.078-2.8Z" transform="translate(15.011 13.003)" fill="#eff3f9"/>
    <g id="Grupo_1098249" data-name="Grupo 1098249" transform="translate(2 2)">
      <path id="Trazado_873077" data-name="Trazado 873077" d="M43.417,65.989a1.517,1.517,0,0,0-.207-.629,1.536,1.536,0,0,0-2.112-.5,10.53,10.53,0,0,1-3.8,1.458V51.109h2.471a1.535,1.535,0,1,0,0-3.069H37.3V37.3H40.9a1.535,1.535,0,0,0,0-3.069H37.3V23.484H51.225a52.613,52.613,0,0,1,1.42,12.278A1.534,1.534,0,0,0,54.18,37.3h12.2a29.819,29.819,0,0,1-.563,4.67,1.535,1.535,0,1,0,3,.637,33.047,33.047,0,0,0,.709-6.84A33.764,33.764,0,1,0,35.763,69.527a32.689,32.689,0,0,0,7.133-.773,1.529,1.529,0,0,0,.52-2.764Zm-9.188.327C28.644,65.4,23.848,59.508,21.165,51.11H34.229Zm0-18.275H20.3A52.153,52.153,0,0,1,18.925,37.3h15.3ZM5.148,37.3H15.857a55.613,55.613,0,0,0,1.291,10.743h-9.5A30.444,30.444,0,0,1,5.148,37.3Zm2.5-13.812h9.5a55.613,55.613,0,0,0-1.291,10.743H5.148A30.444,30.444,0,0,1,7.651,23.486ZM34.229,34.229h-15.3A52.153,52.153,0,0,1,20.3,23.486H34.229Zm0-29.018V20.416H21.165C23.846,12.019,28.644,6.131,34.229,5.211ZM37.3,20.416V5.211c5.585.921,10.381,6.808,13.063,15.206Zm17.083,3.069h9.5a30.444,30.444,0,0,1,2.5,10.743H55.7a55.34,55.34,0,0,0-1.315-10.743ZM62.3,20.416h-8.72A32.617,32.617,0,0,0,46.3,6.971,30.824,30.824,0,0,1,62.3,20.416ZM25.248,6.965a32.552,32.552,0,0,0-7.307,13.452H9.222A30.819,30.819,0,0,1,25.248,6.965ZM9.222,51.11h8.719a32.56,32.56,0,0,0,7.307,13.452A30.813,30.813,0,0,1,9.222,51.11Z" transform="translate(-2 -2)" fill="#08105e"/>
      <path id="Trazado_873078" data-name="Trazado 873078" d="M53.31,35.147,33.471,25.623a3.071,3.071,0,0,0-4.385,3.068l2.164,21.9a3.068,3.068,0,0,0,5.316,1.771l2.756-3.011,3.6,5.137a4.563,4.563,0,0,0,2.973,1.894,4.653,4.653,0,0,0,.807.071,4.574,4.574,0,0,0,2.632-.833l2.515-1.76a4.61,4.61,0,0,0,1.131-6.412l-3.6-5.138,3.771-1.559a3.069,3.069,0,0,0,.155-5.6ZM46.442,40.2a1.535,1.535,0,0,0-.671,2.3l4.7,6.705a1.538,1.538,0,0,1-.376,2.138l-2.515,1.76a1.534,1.534,0,0,1-2.138-.376l-4.7-6.705a1.532,1.532,0,0,0-1.157-.651l-.1,0a1.53,1.53,0,0,0-1.131.5l-4.049,4.421-2.164-21.9,19.841,9.524-5.539,2.291Z" transform="translate(12.475 10.47)" fill="#08105e"/>
    </g>
  </g>
</svg>
