<svg xmlns="http://www.w3.org/2000/svg" width="297.626" height="320.828" viewBox="0 0 297.626 320.828">
  <g id="Grupo_1204765" data-name="Grupo 1204765" transform="translate(-1123.374 -31641)">
    <circle id="Elipse_4839" data-name="Elipse 4839" cx="73.5" cy="73.5" r="73.5" transform="translate(1274 31789)" fill="#f7c99c"/>
    <g id="Grupo_38893" data-name="Grupo 38893" transform="translate(1123.52 31641)">
      <path id="Trazado_62076" data-name="Trazado 62076" d="M2975.729,742.89a17.6,17.6,0,0,1-17.582-17.581V593.486l-38.84-22.194a17.853,17.853,0,0,1-7.13-23.4l40.43-81.565a21.049,21.049,0,0,1,7.631-8.456l49.785-31.42a28.3,28.3,0,0,1,28.663-.943c8.069,4.406,15.32,6.548,22.164,6.548a33.2,33.2,0,0,0,17.823-5.378,28.365,28.365,0,0,1,30.088.271l48.515,30.967a21.082,21.082,0,0,1,7.533,8.392l40.438,81.583a17.852,17.852,0,0,1-7.131,23.4l-38.839,22.195V725.309A17.6,17.6,0,0,1,3141.7,742.89Z" transform="translate(-2910.325 -422.063)" fill="#fade93"/>
      <path id="Trazado_62077" data-name="Trazado 62077" d="M3195.341,552.053l-40.437-81.58a10.563,10.563,0,0,0-3.778-4.209L3102.611,435.3a17.865,17.865,0,0,0-18.913-.191c-15.434,9.548-31.968,9.259-50.543-.883a17.811,17.811,0,0,0-18.027.607l-8.367,5.281-.029.018-41.393,26.123a10.537,10.537,0,0,0-3.822,4.238l-40.43,81.565a7.341,7.341,0,0,0,2.931,9.624l44.13,25.217V724.808a7.09,7.09,0,0,0,7.083,7.083H3141.2a7.091,7.091,0,0,0,7.083-7.083V677.529a4.429,4.429,0,1,0-8.857,0v45.5H2977V531.707a4.429,4.429,0,0,0-8.857,0v44.985L2929.66,554.7l39.792-80.279a1.69,1.69,0,0,1,.615-.68l35.979-22.706a54.109,54.109,0,0,0,10.517,20.117,4.429,4.429,0,0,0,6.816-5.657,45.179,45.179,0,0,1-9.441-19.441l5.918-3.735c.183-.115.373-.224.563-.325a38.177,38.177,0,0,0,75.615-.119,9.039,9.039,0,0,1,1.814.887l4.7,3a45.22,45.22,0,0,1-66.765,30.168,4.428,4.428,0,1,0-4.406,7.682,54.07,54.07,0,0,0,79.068-32.81l35.92,22.928a1.715,1.715,0,0,1,.607.677l39.8,80.294-38.487,21.992V531.705a4.429,4.429,0,0,0-8.857,0V659.814a4.429,4.429,0,0,0,8.857,0V586.893l44.129-25.217a7.341,7.341,0,0,0,2.932-9.624ZM3058.214,465.96a29.316,29.316,0,0,1-28.774-23.685c20.475,11.01,39.729,11.463,57.265,1.347A29.185,29.185,0,0,1,3058.214,465.96Z" transform="translate(-2909.825 -421.563)" fill="#64593b"/>
      <g id="Grupo_38825" data-name="Grupo 38825" transform="translate(81.612 158.115)">
        <path id="Trazado_62078" data-name="Trazado 62078" d="M2990.94,575.405h-2.887V572.9h8.534v2.509H2993.7v15.06h-2.761Z" transform="translate(-2988.054 -572.644)" fill="#64593b"/>
        <path id="Trazado_62079" data-name="Trazado 62079" d="M2997.449,572.9h7.53v2.509h-4.769v4.644H3004v2.51h-3.789v5.4h4.769v2.51h-7.53Z" transform="translate(-2987.585 -572.644)" fill="#64593b"/>
        <path id="Trazado_62080" data-name="Trazado 62080" d="M3006.127,572.9h3.464l2.685,10.516h.05V572.9h2.46v17.57h-2.835l-3.312-12.826h-.051v12.826h-2.46Z" transform="translate(-2987.151 -572.644)" fill="#64593b"/>
        <path id="Trazado_62081" data-name="Trazado 62081" d="M3016.335,572.9h7.53v2.509H3019.1v4.644h3.789v2.51H3019.1v5.4h4.769v2.51h-7.53Z" transform="translate(-2986.641 -572.644)" fill="#64593b"/>
        <path id="Trazado_62082" data-name="Trazado 62082" d="M3025.013,572.9h4.09a3.529,3.529,0,0,1,4.092,4.04v1.079q0,2.737-1.807,3.464v.05a2.158,2.158,0,0,1,1.419,1.231,6.212,6.212,0,0,1,.414,2.484v3.088a11.716,11.716,0,0,0,.05,1.217,3.008,3.008,0,0,0,.251.917h-2.812a4.008,4.008,0,0,1-.2-.8,11.994,11.994,0,0,1-.051-1.356v-3.213a2.73,2.73,0,0,0-.389-1.682,1.643,1.643,0,0,0-1.342-.477h-.954v7.53h-2.761Zm3.765,7.529a1.656,1.656,0,0,0,1.241-.426,2.017,2.017,0,0,0,.414-1.431v-1.355a2.241,2.241,0,0,0-.338-1.381,1.283,1.283,0,0,0-1.067-.426h-1.254v5.02Z" transform="translate(-2986.208 -572.644)" fill="#64593b"/>
        <path id="Trazado_62083" data-name="Trazado 62083" d="M3038.472,572.9H3046v2.509h-4.769v4.644h3.79v2.51h-3.79v5.4H3046v2.51h-7.53Z" transform="translate(-2985.536 -572.644)" fill="#64593b"/>
        <path id="Trazado_62084" data-name="Trazado 62084" d="M3047.149,572.9h3.464l2.686,10.516h.05V572.9h2.459v17.57h-2.836l-3.313-12.826h-.05v12.826h-2.46Z" transform="translate(-2985.102 -572.644)" fill="#64593b"/>
        <path id="Trazado_62085" data-name="Trazado 62085" d="M3062.055,589.6a4.532,4.532,0,0,1-1.042-3.188v-9.437a4.534,4.534,0,0,1,1.042-3.189,4.615,4.615,0,0,1,6.05,0,4.532,4.532,0,0,1,1.041,3.189v1.856h-2.611V576.8q0-1.632-1.38-1.632t-1.381,1.632v9.814q0,1.608,1.381,1.607t1.38-1.607v-2.685h2.611v2.484a4.531,4.531,0,0,1-1.041,3.188,4.615,4.615,0,0,1-6.05,0Z" transform="translate(-2984.41 -572.656)" fill="#64593b"/>
        <path id="Trazado_62086" data-name="Trazado 62086" d="M3071.3,589.574a4.65,4.65,0,0,1-1.054-3.276V572.9H3073v13.6a1.912,1.912,0,0,0,.364,1.305,1.549,1.549,0,0,0,2.082,0,1.91,1.91,0,0,0,.364-1.305V572.9h2.66v13.4a4.65,4.65,0,0,1-1.054,3.276,4.675,4.675,0,0,1-6.124,0Z" transform="translate(-2983.949 -572.644)" fill="#64593b"/>
        <path id="Trazado_62087" data-name="Trazado 62087" d="M3079.948,572.9h7.53v2.509h-4.769v4.644h3.791v2.51h-3.791v5.4h4.769v2.51h-7.53Z" transform="translate(-2983.464 -572.644)" fill="#64593b"/>
        <path id="Trazado_62088" data-name="Trazado 62088" d="M3088.626,572.9h3.464l2.685,10.516h.05V572.9h2.46v17.57h-2.836l-3.312-12.826h-.051v12.826h-2.46Z" transform="translate(-2983.031 -572.644)" fill="#64593b"/>
        <path id="Trazado_62089" data-name="Trazado 62089" d="M3101.027,575.405h-2.886V572.9h8.534v2.509h-2.886v15.06h-2.762Z" transform="translate(-2982.555 -572.644)" fill="#64593b"/>
        <path id="Trazado_62090" data-name="Trazado 62090" d="M3108.6,572.9h3.739l2.862,17.57h-2.761l-.5-3.489v.049H3108.8l-.5,3.44h-2.561Zm3.011,11.747-1.229-8.685h-.05l-1.2,8.685Z" transform="translate(-2982.176 -572.644)" fill="#64593b"/>
        <path id="Trazado_62091" data-name="Trazado 62091" d="M2998.633,596.8h7.53v2.509h-4.769v4.644h3.79v2.51h-3.79v5.4h4.769v2.509h-7.53Z" transform="translate(-2987.526 -571.45)" fill="#64593b"/>
        <path id="Trazado_62092" data-name="Trazado 62092" d="M3007.311,596.8h2.76v15.06h4.543v2.509h-7.3Z" transform="translate(-2987.092 -571.45)" fill="#64593b"/>
        <path id="Trazado_62093" data-name="Trazado 62093" d="M3021.528,596.8h3.739l2.862,17.57h-2.761l-.5-3.489v.05h-3.137l-.5,3.439h-2.56Zm3.011,11.747-1.229-8.685h-.05l-1.2,8.685Z" transform="translate(-2986.525 -571.45)" fill="#64593b"/>
        <path id="Trazado_62094" data-name="Trazado 62094" d="M3028.945,596.8h3.464l2.686,10.516h.051V596.8h2.458v17.57h-2.836l-3.312-12.826h-.05v12.826h-2.46Z" transform="translate(-2986.011 -571.45)" fill="#64593b"/>
        <path id="Trazado_62095" data-name="Trazado 62095" d="M3041.322,597h3.739l2.862,17.57h-2.761l-.5-3.489v.05h-3.137l-.5,3.439h-2.56Zm2.133-4.067h3.012l-2.686,2.886H3041.7Zm.879,15.813-1.229-8.685h-.051l-1.2,8.685Z" transform="translate(-2985.536 -571.643)" fill="#64593b"/>
        <path id="Trazado_62096" data-name="Trazado 62096" d="M3048.739,596.8h2.761v15.06h4.542v2.509h-7.3Z" transform="translate(-2985.023 -571.45)" fill="#64593b"/>
        <path id="Trazado_62097" data-name="Trazado 62097" d="M3056.963,596.8h2.761v17.57h-2.761Z" transform="translate(-2984.613 -571.45)" fill="#64593b"/>
        <path id="Trazado_62098" data-name="Trazado 62098" d="M3062.127,613.493a4.735,4.735,0,0,1-1.028-3.277v-1h2.61v1.205q0,1.707,1.43,1.707a1.342,1.342,0,0,0,1.067-.415,2.009,2.009,0,0,0,.365-1.343,3.735,3.735,0,0,0-.5-1.946,9.322,9.322,0,0,0-1.857-2.02,11.128,11.128,0,0,1-2.385-2.723,5.561,5.561,0,0,1-.677-2.748,4.579,4.579,0,0,1,1.054-3.227,3.961,3.961,0,0,1,3.062-1.141,3.81,3.81,0,0,1,3,1.141,4.777,4.777,0,0,1,1.017,3.277v.727h-2.611v-.9a2.013,2.013,0,0,0-.351-1.318,1.273,1.273,0,0,0-1.028-.415q-1.381,0-1.382,1.682a3.308,3.308,0,0,0,.516,1.782,9.853,9.853,0,0,0,1.87,2.009,10.362,10.362,0,0,1,2.385,2.736,6.083,6.083,0,0,1,.652,2.886,4.711,4.711,0,0,1-1.066,3.314,4.013,4.013,0,0,1-3.1,1.154A3.88,3.88,0,0,1,3062.127,613.493Z" transform="translate(-2984.406 -571.462)" fill="#64593b"/>
        <path id="Trazado_62099" data-name="Trazado 62099" d="M3070.445,596.8h2.761v17.57h-2.761Z" transform="translate(-2983.939 -571.45)" fill="#64593b"/>
        <path id="Trazado_62100" data-name="Trazado 62100" d="M3075.61,613.493a4.726,4.726,0,0,1-1.029-3.277v-1h2.61v1.205q0,1.707,1.431,1.707a1.341,1.341,0,0,0,1.066-.415,2.007,2.007,0,0,0,.364-1.343,3.724,3.724,0,0,0-.5-1.946,9.315,9.315,0,0,0-1.857-2.02,11.121,11.121,0,0,1-2.385-2.723,5.568,5.568,0,0,1-.676-2.748,4.579,4.579,0,0,1,1.054-3.227,3.959,3.959,0,0,1,3.062-1.141,3.806,3.806,0,0,1,3,1.141,4.771,4.771,0,0,1,1.017,3.277v.727h-2.611v-.9a2.019,2.019,0,0,0-.351-1.318,1.275,1.275,0,0,0-1.029-.415q-1.381,0-1.381,1.682a3.319,3.319,0,0,0,.514,1.782,9.851,9.851,0,0,0,1.87,2.009,10.345,10.345,0,0,1,2.385,2.736,6.074,6.074,0,0,1,.652,2.886,4.711,4.711,0,0,1-1.067,3.314,4.013,4.013,0,0,1-3.1,1.154A3.877,3.877,0,0,1,3075.61,613.493Z" transform="translate(-2983.732 -571.462)" fill="#64593b"/>
        <path id="Trazado_62101" data-name="Trazado 62101" d="M3087.753,596.8h4.217a4.02,4.02,0,0,1,3.087,1.1,4.586,4.586,0,0,1,1.028,3.238v8.885a4.586,4.586,0,0,1-1.028,3.238,4.02,4.02,0,0,1-3.087,1.1h-4.217Zm4.167,15.06a1.33,1.33,0,0,0,1.041-.4,1.915,1.915,0,0,0,.365-1.305v-9.138a1.913,1.913,0,0,0-.365-1.3,1.334,1.334,0,0,0-1.041-.4h-1.4v12.551Z" transform="translate(-2983.074 -571.45)" fill="#64593b"/>
        <path id="Trazado_62102" data-name="Trazado 62102" d="M3097.459,596.8h7.53v2.509h-4.769v4.644h3.789v2.51h-3.789v5.4h4.769v2.509h-7.53Z" transform="translate(-2982.59 -571.45)" fill="#64593b"/>
        <path id="Trazado_62103" data-name="Trazado 62103" d="M3003.857,637.412a4.524,4.524,0,0,1-1.042-3.188v-9.437a4.527,4.527,0,0,1,1.042-3.187,4.613,4.613,0,0,1,6.049,0,4.531,4.531,0,0,1,1.042,3.188v1.857h-2.611v-2.034q0-1.63-1.38-1.632t-1.382,1.632v9.815q0,1.606,1.382,1.606t1.38-1.606V631.74h2.611v2.484a4.528,4.528,0,0,1-1.042,3.188,4.61,4.61,0,0,1-6.049,0Z" transform="translate(-2987.317 -570.268)" fill="#64593b"/>
        <path id="Trazado_62104" data-name="Trazado 62104" d="M3014.308,620.709h3.739l2.862,17.57h-2.762l-.5-3.489v.05h-3.138l-.5,3.439h-2.561Zm3.011,11.747-1.229-8.685h-.05l-1.2,8.685Z" transform="translate(-2986.885 -570.256)" fill="#64593b"/>
        <path id="Trazado_62105" data-name="Trazado 62105" d="M3021.726,620.709h4.215a4.025,4.025,0,0,1,3.088,1.1,4.588,4.588,0,0,1,1.029,3.238v8.886a4.592,4.592,0,0,1-1.029,3.238,4.025,4.025,0,0,1-3.088,1.1h-4.215Zm4.165,15.06a1.33,1.33,0,0,0,1.042-.4,1.914,1.914,0,0,0,.364-1.305v-9.137a1.914,1.914,0,0,0-.364-1.305,1.338,1.338,0,0,0-1.042-.4h-1.405v12.55Z" transform="translate(-2986.372 -570.256)" fill="#64593b"/>
        <path id="Trazado_62106" data-name="Trazado 62106" d="M3033.552,620.709h3.74l2.861,17.57h-2.761l-.5-3.489v.05h-3.138l-.5,3.439h-2.561Zm3.011,11.747-1.229-8.685h-.05l-1.2,8.685Z" transform="translate(-2985.925 -570.256)" fill="#64593b"/>
        <path id="Trazado_62107" data-name="Trazado 62107" d="M3044.795,620.709h4.065a4.025,4.025,0,0,1,3.088,1.1,4.584,4.584,0,0,1,1.028,3.238v1.731a4.584,4.584,0,0,1-1.028,3.238,4.025,4.025,0,0,1-3.088,1.1h-1.3v7.153h-2.761Zm4.065,7.906a1.3,1.3,0,0,0,1.017-.376,1.909,1.909,0,0,0,.338-1.281v-2.082a1.91,1.91,0,0,0-.338-1.281,1.3,1.3,0,0,0-1.017-.376h-1.3v5.4Z" transform="translate(-2985.22 -570.256)" fill="#64593b"/>
        <path id="Trazado_62108" data-name="Trazado 62108" d="M3054.022,620.709h4.092a3.529,3.529,0,0,1,4.091,4.041v1.079q0,2.736-1.806,3.464v.05a2.158,2.158,0,0,1,1.418,1.229,6.2,6.2,0,0,1,.415,2.485v3.087a11.448,11.448,0,0,0,.05,1.217,3.016,3.016,0,0,0,.251.917h-2.812a3.985,3.985,0,0,1-.2-.8,12.066,12.066,0,0,1-.051-1.355v-3.214a2.724,2.724,0,0,0-.389-1.681,1.644,1.644,0,0,0-1.342-.478h-.955v7.53h-2.761Zm3.765,7.53a1.663,1.663,0,0,0,1.243-.426,2.021,2.021,0,0,0,.414-1.432v-1.356a2.232,2.232,0,0,0-.339-1.38,1.279,1.279,0,0,0-1.066-.426h-1.256v5.02Z" transform="translate(-2984.759 -570.256)" fill="#64593b"/>
        <path id="Trazado_62109" data-name="Trazado 62109" d="M3063.656,620.709h7.53v2.51h-4.769v4.643h3.791v2.51h-3.791v5.4h4.769v2.509h-7.53Z" transform="translate(-2984.278 -570.256)" fill="#64593b"/>
        <path id="Trazado_62110" data-name="Trazado 62110" d="M3072.334,620.709h3.464l2.685,10.517h.05V620.709h2.46v17.57h-2.836l-3.312-12.825h-.05v12.825h-2.46Z" transform="translate(-2983.844 -570.256)" fill="#64593b"/>
        <path id="Trazado_62111" data-name="Trazado 62111" d="M3082.542,620.709h4.217a4.023,4.023,0,0,1,3.087,1.1,4.59,4.59,0,0,1,1.03,3.238v8.886a4.594,4.594,0,0,1-1.03,3.238,4.023,4.023,0,0,1-3.087,1.1h-4.217Zm4.166,15.06a1.329,1.329,0,0,0,1.041-.4,1.915,1.915,0,0,0,.365-1.305v-9.137a1.915,1.915,0,0,0-.365-1.305,1.337,1.337,0,0,0-1.041-.4h-1.4v12.55Z" transform="translate(-2983.334 -570.256)" fill="#64593b"/>
        <path id="Trazado_62112" data-name="Trazado 62112" d="M3094.368,620.709h3.74l2.863,17.57h-2.761l-.5-3.489v.05h-3.137l-.5,3.439h-2.56Zm3.013,11.747-1.229-8.685h-.05l-1.206,8.685Z" transform="translate(-2982.886 -570.256)" fill="#64593b"/>
      </g>
      <rect id="Rectángulo_6291" data-name="Rectángulo 6291" width="151.522" height="44.124" transform="translate(72.155 106.973)" fill="#64593b"/>
      <g id="Grupo_38826" data-name="Grupo 38826" transform="translate(82.666 112.834)">
        <path id="Trazado_62113" data-name="Trazado 62113" d="M2989.058,529.946h7.132q3.718,0,5.426,1.728t1.706,5.316v1.883q0,4.77-3.15,6.038V545a3.763,3.763,0,0,1,2.472,2.144,10.812,10.812,0,0,1,.722,4.332v5.383a20.459,20.459,0,0,0,.087,2.122,5.28,5.28,0,0,0,.438,1.6h-4.9a6.987,6.987,0,0,1-.35-1.4,20.876,20.876,0,0,1-.087-2.362v-5.6a4.754,4.754,0,0,0-.679-2.932,2.872,2.872,0,0,0-2.34-.831h-1.663v13.127h-4.813Zm6.563,13.126a2.887,2.887,0,0,0,2.166-.743,3.514,3.514,0,0,0,.722-2.495v-2.362a3.889,3.889,0,0,0-.591-2.407,2.233,2.233,0,0,0-1.86-.744h-2.187v8.751Z" transform="translate(-2989.058 -529.508)" fill="#fade93"/>
        <path id="Trazado_62114" data-name="Trazado 62114" d="M3005.854,529.946h13.126v4.375h-8.313v8.1h6.606v4.376h-6.606V556.2h8.313v4.376h-13.126Z" transform="translate(-2988.219 -529.508)" fill="#fade93"/>
        <path id="Trazado_62115" data-name="Trazado 62115" d="M3022.505,559.065a7.9,7.9,0,0,1-1.816-5.557V537.055a7.9,7.9,0,0,1,1.816-5.557,8.045,8.045,0,0,1,10.545,0,7.9,7.9,0,0,1,1.815,5.557v3.238h-4.55v-3.545q0-2.843-2.407-2.844t-2.408,2.844v17.11q0,2.8,2.408,2.8t2.407-2.8v-4.683h4.55v4.332a7.9,7.9,0,0,1-1.815,5.557,8.042,8.042,0,0,1-10.545,0Z" transform="translate(-2987.478 -529.529)" fill="#fade93"/>
        <path id="Trazado_62116" data-name="Trazado 62116" d="M3038.613,559.023a8.12,8.12,0,0,1-1.837-5.711V529.946h4.813v23.716a3.337,3.337,0,0,0,.635,2.275,2.7,2.7,0,0,0,3.632,0,3.345,3.345,0,0,0,.634-2.275V529.946h4.638v23.367a8.12,8.12,0,0,1-1.838,5.711,8.154,8.154,0,0,1-10.677,0Z" transform="translate(-2986.674 -529.508)" fill="#fade93"/>
        <path id="Trazado_62117" data-name="Trazado 62117" d="M3053.7,529.946h13.127v4.375h-8.314v8.1h6.607v4.376h-6.607V556.2h8.314v4.376H3053.7Z" transform="translate(-2985.83 -529.508)" fill="#fade93"/>
        <path id="Trazado_62118" data-name="Trazado 62118" d="M3068.823,529.946h7.132q3.72,0,5.426,1.728t1.707,5.316v1.883q0,4.77-3.151,6.038V545a3.762,3.762,0,0,1,2.473,2.144,10.813,10.813,0,0,1,.721,4.332v5.383a20.528,20.528,0,0,0,.087,2.122,5.329,5.329,0,0,0,.438,1.6h-4.9a7.122,7.122,0,0,1-.35-1.4,21.241,21.241,0,0,1-.087-2.362v-5.6a4.76,4.76,0,0,0-.678-2.932,2.872,2.872,0,0,0-2.341-.831h-1.663v13.127h-4.813Zm6.563,13.126a2.89,2.89,0,0,0,2.167-.743,3.517,3.517,0,0,0,.721-2.495v-2.362a3.891,3.891,0,0,0-.59-2.407,2.233,2.233,0,0,0-1.861-.744h-2.188v8.751Z" transform="translate(-2985.073 -529.508)" fill="#fade93"/>
        <path id="Trazado_62119" data-name="Trazado 62119" d="M3085.62,529.946h7.351a7.018,7.018,0,0,1,5.383,1.924,8,8,0,0,1,1.794,5.646v15.49a7.994,7.994,0,0,1-1.794,5.644,7.007,7.007,0,0,1-5.383,1.926h-7.351Zm7.263,26.254a2.331,2.331,0,0,0,1.817-.7,3.346,3.346,0,0,0,.634-2.276V537.3a3.347,3.347,0,0,0-.634-2.275,2.332,2.332,0,0,0-1.817-.7h-2.45V556.2Z" transform="translate(-2984.235 -529.508)" fill="#fade93"/>
        <path id="Trazado_62120" data-name="Trazado 62120" d="M3102.54,529.946h13.127v4.375h-8.314v8.1h6.607v4.376h-6.607V556.2h8.314v4.376H3102.54Z" transform="translate(-2983.39 -529.508)" fill="#fade93"/>
      </g>
    </g>
    <g id="Grupo_1068137" data-name="Grupo 1068137" transform="translate(1128.989 31672.197)">
      <g id="Grupo_1054402" data-name="Grupo 1054402" transform="translate(0 0)" style="isolation: isolate">
        <line id="Línea_209" data-name="Línea 209" y2="23.437" transform="translate(11.719)" fill="none" stroke="#5ec6a3" stroke-linecap="round" stroke-linejoin="round" stroke-width="11.23"/>
        <line id="Línea_210" data-name="Línea 210" x1="23.438" transform="translate(0 11.718)" fill="none" stroke="#5ec6a3" stroke-linecap="round" stroke-linejoin="round" stroke-width="11.23"/>
      </g>
      <g id="Grupo_1054403" data-name="Grupo 1054403" transform="translate(48.108 0)" style="isolation: isolate">
        <line id="Línea_211" data-name="Línea 211" y2="23.437" transform="translate(11.719)" fill="none" stroke="#5ec6a3" stroke-linecap="round" stroke-linejoin="round" stroke-width="11.23"/>
        <line id="Línea_212" data-name="Línea 212" x1="23.438" transform="translate(0 11.718)" fill="none" stroke="#5ec6a3" stroke-linecap="round" stroke-linejoin="round" stroke-width="11.23"/>
      </g>
      <g id="Grupo_1054404" data-name="Grupo 1054404" transform="translate(96.218 0)" style="isolation: isolate">
        <line id="Línea_213" data-name="Línea 213" y2="23.437" transform="translate(11.719)" fill="none" stroke="#5ec6a3" stroke-linecap="round" stroke-linejoin="round" stroke-width="11.23"/>
        <line id="Línea_214" data-name="Línea 214" x1="23.438" transform="translate(0 11.718)" fill="none" stroke="#5ec6a3" stroke-linecap="round" stroke-linejoin="round" stroke-width="11.23"/>
      </g>
    </g>
  </g>
</svg>
