<svg xmlns="http://www.w3.org/2000/svg" width="75" height="75" viewBox="0 0 75 75">
  <g id="Grupo_1204756" data-name="Grupo 1204756" transform="translate(-451 -8125)">
    <path id="Trazado_1261940" data-name="Trazado 1261940" d="M37.5,0A37.5,37.5,0,1,1,0,37.5,37.5,37.5,0,0,1,37.5,0Z" transform="translate(451 8125)" fill="#5ec6a3"/>
    <path id="Trazado_1261939" data-name="Trazado 1261939" d="M-1.5-9.406q0,4.719-1.953,7.219A6.818,6.818,0,0,1-9.172.313a6.865,6.865,0,0,1-5.687-2.453q-1.969-2.453-2.016-7.031v-4.187q0-4.766,1.977-7.234a6.869,6.869,0,0,1,5.7-2.469,6.875,6.875,0,0,1,5.688,2.445q1.969,2.445,2.016,7.023Zm-4.516-4.6a8.331,8.331,0,0,0-.773-4.121A2.614,2.614,0,0,0-9.2-19.422a2.567,2.567,0,0,0-2.352,1.228,7.8,7.8,0,0,0-.8,3.84v5.537A8.745,8.745,0,0,0-11.6-4.681a2.579,2.579,0,0,0,2.43,1.353,2.536,2.536,0,0,0,2.391-1.3A8.536,8.536,0,0,0-6.016-8.6ZM12.516,0H8V-17.406L2.609-15.734v-3.672l9.422-3.375h.484Z" transform="translate(489 8175)" fill="#214539"/>
  </g>
</svg>
