<svg xmlns="http://www.w3.org/2000/svg" width="75" height="75" viewBox="0 0 75 75">
  <g id="Grupo_1204757" data-name="Grupo 1204757" transform="translate(-763 -8125)">
    <path id="Trazado_1261941" data-name="Trazado 1261941" d="M37.5,0A37.5,37.5,0,1,1,0,37.5,37.5,37.5,0,0,1,37.5,0Z" transform="translate(763 8125)" fill="#5ec6a3"/>
    <path id="Trazado_1261942" data-name="Trazado 1261942" d="M-1.5-9.406q0,4.719-1.953,7.219A6.818,6.818,0,0,1-9.172.313a6.865,6.865,0,0,1-5.687-2.453q-1.969-2.453-2.016-7.031v-4.187q0-4.766,1.977-7.234a6.869,6.869,0,0,1,5.7-2.469,6.875,6.875,0,0,1,5.688,2.445q1.969,2.445,2.016,7.023Zm-4.516-4.6a8.331,8.331,0,0,0-.773-4.121A2.614,2.614,0,0,0-9.2-19.422a2.567,2.567,0,0,0-2.352,1.228,7.8,7.8,0,0,0-.8,3.84v5.537A8.745,8.745,0,0,0-11.6-4.681a2.579,2.579,0,0,0,2.43,1.353,2.536,2.536,0,0,0,2.391-1.3A8.536,8.536,0,0,0-6.016-8.6ZM17.141,0H1.547V-3.094l7.359-7.844a18.156,18.156,0,0,0,2.242-2.891,4.644,4.644,0,0,0,.727-2.344,3.475,3.475,0,0,0-.766-2.383,2.764,2.764,0,0,0-2.187-.867,2.981,2.981,0,0,0-2.414,1.055,4.178,4.178,0,0,0-.883,2.773H1.094a7.458,7.458,0,0,1,.992-3.8,6.993,6.993,0,0,1,2.8-2.7A8.525,8.525,0,0,1,9-23.062a8.072,8.072,0,0,1,5.461,1.688,5.97,5.97,0,0,1,1.945,4.766,7.649,7.649,0,0,1-.875,3.438,19.1,19.1,0,0,1-3,4.078L7.359-3.641h9.781Z" transform="translate(799.875 8174.063)" fill="#214539"/>
  </g>
</svg>
